<svg width="30" height="29" viewBox="0 0 30 29" fill="none" xmlns="http://www.w3.org/2000/svg">
<path fill-rule="evenodd" clip-rule="evenodd" d="M14.9998 2.41699C21.6733 2.41699 27.083 7.82672 27.083 14.5003C27.083 21.1732 21.6733 26.5835 14.9998 26.5835C8.32623 26.5835 2.9165 21.1732 2.9165 14.5003C2.9165 7.82672 8.32623 2.41699 14.9998 2.41699Z" fill="#2775CA"/>
<path fill-rule="evenodd" clip-rule="evenodd" d="M12.7348 22.9013C12.7348 23.1856 12.5122 23.347 12.2373 23.2612C8.5839 22.0957 5.93506 18.67 5.93506 14.6279C5.93506 10.5859 8.5839 7.16 12.2373 5.99451C12.5122 5.90924 12.7348 6.07017 12.7348 6.3544V7.05605C12.7348 7.24527 12.5881 7.46798 12.4078 7.52964C9.51733 8.59104 7.4467 11.3679 7.4467 14.6231C7.4467 17.8783 9.51733 20.6556 12.4078 21.7165C12.5881 21.7829 12.7348 22.0007 12.7348 22.1906V22.9013Z" fill="#F3F3F3"/>
<path fill-rule="evenodd" clip-rule="evenodd" d="M15.7533 20.2899C15.7533 20.4986 15.5827 20.6692 15.3743 20.6692H14.6207C14.4123 20.6692 14.2418 20.4986 14.2418 20.2899V19.096C12.5927 18.8734 11.7873 17.9492 11.5693 16.6937C11.5313 16.4801 11.7018 16.286 11.9198 16.286H12.7823C12.9623 16.286 13.114 16.4141 13.1519 16.5938C13.3131 17.3426 13.7443 17.916 15.0662 17.916C16.0423 17.916 16.7343 17.371 16.7343 16.5563C16.7343 15.741 16.3267 15.4331 14.8956 15.196C12.7823 14.9118 11.7825 14.2719 11.7825 12.6135C11.7825 11.3342 12.7493 10.3392 14.2466 10.1259V8.95542C14.2466 8.74685 14.4172 8.57617 14.6255 8.57617H15.3791C15.5875 8.57617 15.7581 8.74685 15.7581 8.95542V10.1591C16.9759 10.3774 17.7482 11.0688 17.9995 12.2154C18.0467 12.4338 17.8762 12.6371 17.6536 12.6371H16.8574C16.6868 12.6371 16.5447 12.5233 16.4927 12.3575C16.2794 11.6282 15.7581 11.3155 14.8529 11.3155C13.8532 11.3155 13.3366 11.7987 13.3366 12.4762C13.3366 13.1917 13.6306 13.5516 15.166 13.7747C17.2411 14.059 18.3123 14.6512 18.3123 16.419C18.3123 17.7599 17.3171 18.845 15.7581 19.096V20.2899H15.7533Z" fill="#F3F3F3"/>
<path fill-rule="evenodd" clip-rule="evenodd" d="M17.7621 23.2615C17.4875 23.3473 17.2646 23.1858 17.2646 22.9016V22.2005C17.2646 21.9919 17.3926 21.7978 17.5916 21.7264C20.4821 20.6649 22.5527 17.8881 22.5527 14.6329C22.5527 11.3777 20.4821 8.60091 17.5916 7.53951C17.4116 7.47305 17.2646 7.25528 17.2646 7.06538V6.36427C17.2646 6.08004 17.4875 5.91431 17.7621 6.00384C21.4155 7.17001 24.0644 10.5957 24.0644 14.6377C24.0598 18.6701 21.4155 22.0912 17.7621 23.2615Z" fill="#F3F3F3"/>
</svg>
